<svg xmlns="http://www.w3.org/2000/svg" viewBox="0 0 24 24" style="fill:grey"><path d="M14.316406 14.253906c0-.703125-.574218-1.277344-1.277344-1.277344-.027343 0-.054687.003907-.078124.003907v.164062c.023437-.003906.050781-.003906.078124-.003906.617188 0 1.117188.5 1.117188 1.113281 0 .617188-.5 1.117188-1.117188 1.117188h-.054687v.476562h-.394531v.214844h.898437v-.214844h-.339843v-.320312c.652343-.054688 1.167968-.605469 1.167968-1.273438zM8.488281 6.058594l-.109375.113281.148438.121094.144531-.121094zM1.90625 5.792969l-.011719-.136719c-.117187.179688-.226562.359375-.332031.546875zM5.726562 2.96875v-.183594h-.433593l-.023438.085938h-.265625v.261718h.597656zm18.183594 6.304688l.082032.160156c-.011719-.066406-.03125-.136719-.046876-.203125zM7.734375 6.492188l.226563-.042969.183593-.113281v-.238282h-.410156v.394532zm15.496094.636718c-.089844-.195312-.183594-.394531-.285157-.585937l-.074218.085937v.527344l.234375-.03125zM5.714844 3.695312s.023437-.261718 0-.261718c-.019532 0-.285156.046875-.285156.046875l-.425782.117187.113282.136719zm15.605468 1.089844l.238282-.347656c-.191406-.234375-.390625-.457031-.597656-.675781l-.003907.585937-.519531.257813.050781.171875zM6.730469 4.773438l-.289063-.070313-.316406.152344.195312.394531.308594-.097656zm1.207031.941406V6l.253906-.0625zm-.710938-.105469L6.878906 5.75l-.066406.171875L7.085938 6h.722656v-.25h-.105469v-.140625zm0 0"/><path d="M22.820312 7.667969l-.316406-.347657-.0625-.550781-.324218.175781-.175782.675782-.46875-.492188-.019531-.46875L21 6.277344l-.164062-.167969h-.527344l.167968.464844.628907.347656.109375.117187-.132813.066407.003907.367187-.308594.125-.261719-.054687-.164063-.230469.425782.023438.117187-.15625-.949219-.628907L19.875 6.28125l-.386719.34375-.390625-.082031-.59375.765625-.117187.296875-.378907.035156-.5625.003906-.335937-.15625-.097656-.660156.121093-.3125.570313-.125.625.125.074219-.34375-.265625-.0625.09375-.53125.625-.09375.441406-.613281.453125-.078125.40625.0625h.152344l-.082032-.578125-.5.199218-.171874-.429687-.289063-.039063-.054687-.296874.234374-.253907.5625-.214843.140626-.253907C18.558594 1.601562 16.601562.621094 14.441406.210938c-.050781-.011719-.097656-.019532-.148437-.027344-.222657-.039063-.449219-.066406-.675781-.0937502-.449219-.0507813-.902344-.078125-1.367188-.078125-2.664062 0-5.128906.8437502-7.140625 2.2734372l.507813-.003906.273437.152344.515625.105468.039062.199219.816407.03125-.113281-.257812-.722657-.019531.171875-.160157-.0625-.191406h-.65625l.71875-.527344h.683594l.324219.4375.535156.03125.320313-.308593.242187.117187-.445313.429687s-.613281.011719-.582031.011719.050781.417969.050781.417969l.746094-.019531.078125-.199219L9.066406 2.5l.0625-.296875-.304687-.050781.101562-.269532.230469-.070312.808594.039062L9.519531 2.25l.074219.3125.460938.066406-.03125-.554687.445312-.230469.785156-.089844 1.140625.5v.429688l.363281.085937-.179687.339844H12.0625L11.910156 3.5l-1.175781-.273438.921875-.488281-.351562-.296875-.796876.101563-.085937.085937-.226563.234375-.382812.03125.03125.1875.132812.054688-.003906.0625-.308594.042969-.023437.175781-.296875.015625-.050781-.351563-.53125.160157-1.078125.625.117187.441406.304688.195312.605469.082032v.679687l.277343-.042969.257813-.53125.644531-.203125v-.816406L10.25 3.40625l.863281.203125-.058593.539063h.230468l.636719-.308594.027344.707031.464843.277344-.019531.417969-.445312.152343.03125.136719.535156.242188-.011719.289062-.152344.011719c0-.003907-.003906-.007813-.003906-.007813l-.675781-.207031-.027344-.214844.195313-.132812v-.195313l-.210938-.050781-.050781.179687-.375.058594-.035156-.015625v.019531l-.128907.019532-.105468-.210938-.121094-.050781h-.265625l-.117187.097656v.214844l.226562.074219.222656.03125-.050781.023437-.203125.222657-.089844-.113282-.199218-.046875-.535157.5.070313.054688-.792969.433593-.75.769532-.050781.339844-.746094.484374-.371094.371094.039063.738282-.515625-.238282.007812-.433594H5.257812l-.742187.375L4.195312 9.75l-.128906.464844.210938.449218.582031.070313.929687-.613281.078126.304687-.28125.527344.707031.121094.070312 1.078125.089844.015625v-.003907l.007813.003907.871093.148437.613281-.703125.75.148438.261719.359375.714844-.039063.019531-.210937.394532.1875.445312.6875.765625.011718.28125.488282.042969.597656.847656.320312 1.066406.011719.316406.503907.472657.152343-.089844.417969-.519531.652344-.152344 1.445312-.46875.367188-.695312-.023438-.234376.398438.175782.75-.757813.957031-.242187.4375-.722656.34375-.472657.070313-.019531.199218.332031.09375-.039062.214844-.300781.285156.183593.222656.359375.011719-.019531.273438-.097656.269531-.027344.21875.527344.441406-.070313.230469-.722656-.011719-.71875-.621094-.558594-.972656.078125-.941406-.421875-.558594.171875-.945312-.25-.070313v-2.054687s-.707031-.527344-.75-.527344c-.039062 0-.371093-.089844-.371093-.089844l-.070313-.386718-.917969-1.136719.089844-.410157.027344-.667968.636718-.4375-.089843-.75-.925781-.066406-.726563-.820313-.515625-.136719-.332031-.0625.039062-.296875-.421875-.0625v.171875l-1.0625-.261718-.425781-.644532.148437-.261718-.175781-.003907-.050781-.167969.125-.0625-.542969-.78125-.117187-.707031h-.269532l.089844.6875.464844.707031-.050781.277344-.394531-.058594-.484376-.816406v-.949218l-.503906-.238282v-.578125c-.265625.625-.480468 1.277344-.640625 1.949219L.5 9.3125l.097656.46875.207032.332031.136718.15625.253906.09375-.238281.28125L.5 10.6875H.148438l.039062-.40625.285156-.058594-.023437-.1875-.238281-.148437C.078125 10.585938.00390625 11.308594 0 12.046875c.0351562 6.589844 5.464844 11.933594 12.136719 11.933594 3.792969 0 7.183593-1.730469 9.414062-4.433594h-.402343V18.75l-.460938-.617188v-.960937l-.355469-.347656-.03125-.398438.449219-.847656-.851562-1.484375L20 13.085938l-.765625-.078126-.28125-.28125H18.4375l-.261719.242188h-.910156l-.027344.078125h-.507812l-1.15625-1.304687.007812-1.019532.191407-.066406.074218-.390625h-.273437l-.113281-.410156 1.34375-.953125v-.679688l.65625-.359375.265624.027344h.539063l.421875-.226563 1.363281-.105468V8.25l1.074219.265625.210938.152344h.199218v-.375l.617188-.058594.589844.433594h.96875l.066406-.0625c-.09375-.320313-.203125-.636719-.324219-.949219zM5.261719 12.378906l-.230469.03125v-.515625l.074219-.085937c.097656.191406.191406.382812.277343.574218zm.785156 2.101563l.039063-.042969c.015624.066406.03125.132812.046874.199219zm0 0"/><path d="M6.765625 6.691406l.214844.113282.511719-.707032H7.09375l-.28125.296875zm1.476563-.332031v.214844l.105468.148437h.386719v-.230468l-.460937-.132813zm-.507813.34375l-.179687.011719-.0625.261718h.386718l.175782-.171874v-.230469l-.28125.039062zm-1.6875 7.777344l.085937.15625c-.015624-.066407-.035156-.132813-.050781-.199219zM5.03125 11.894531v.515625l.230469-.03125.121093.003906C5.296875 12.1875 5.203125 12 5.105469 11.808594zm1.421875.273438l.007813.003906zm-3.75-2.082031h.175781l.023438-.046876-.125-.183593-.125.0625zm-2.253906-.050782l.023437.191406-.285156.058594-.039062.40625h.34375l.457031-.046875.238281-.277343-.25-.097657-.136719-.15625-.210937-.332031-.097656-.46875-.164063.035156-.03125.003906c-.039063.175782-.074219.347657-.105469.523438l.019532.011719zm0 0"/></svg>